<svg width="60" height="60" viewBox="0 0 60 60" fill="none" xmlns="http://www.w3.org/2000/svg">
<ellipse cx="30" cy="29.88" rx="30" ry="29.88" fill="#397638"/>
<path d="M8.13042 35.0851C8.27136 35.0716 8.49099 35.063 8.78932 35.0593L8.91717 35.0577L8.91739 35.0044C8.61015 34.952 8.36557 34.9043 8.18366 34.8613L6.04987 34.3563L5.98254 33.6534L7.97814 32.7156C8.13028 32.6334 8.32186 32.5546 8.55286 32.4792L8.67138 32.4358L8.66103 32.3835C8.35049 32.4452 8.09128 32.4861 7.8834 32.506L6.49342 32.6391C6.45658 32.7742 6.40068 32.8773 6.32571 32.9485L5.9137 32.9346L5.81448 31.8988L6.21637 31.8069C6.30349 31.8626 6.37795 31.9532 6.43976 32.0789L8.88147 31.845C8.92049 31.6955 8.97605 31.5888 9.04817 31.525L9.46018 31.5389L9.57559 32.7439L7.51961 33.7195C7.29652 33.8405 7.08943 33.9243 6.89834 33.971L6.81001 33.9955L6.8171 34.0695C7.03337 34.063 7.28256 34.1031 7.56466 34.1899L9.76491 34.7205L9.8783 35.9044L9.47641 35.9962C9.3935 35.9473 9.3187 35.8531 9.25201 35.7137L6.83144 35.9455C6.79175 36.088 6.73937 36.1908 6.6743 36.2539L6.23058 36.2431L6.11517 35.0381L6.54348 34.9437C6.61935 34.9934 6.69029 35.0844 6.7563 35.2167L8.13042 35.0851Z" fill="white"/>
<path d="M7.12616 39.5515C6.99348 39.148 7.00101 38.8083 7.14875 38.5324C7.2976 38.2599 7.57713 38.0562 7.98734 37.9213C8.23615 37.8395 8.46127 37.8046 8.6627 37.8166C8.86749 37.8275 9.03854 37.8774 9.17585 37.9664C9.44155 38.1399 9.62581 38.3829 9.72864 38.6956C9.83147 39.0083 9.82928 39.2736 9.72207 39.4914C9.61932 39.7115 9.36116 39.8896 8.94759 40.0256C8.7055 40.1052 8.5452 40.0256 8.4667 39.7869L8.10678 38.6924C7.89938 38.7755 7.76744 38.8786 7.71098 39.0014C7.65563 39.1277 7.66223 39.2951 7.73078 39.5035C7.76837 39.6179 7.81776 39.7227 7.87894 39.8181C7.94011 39.9135 7.99189 39.9803 8.03427 40.0185L8.09784 40.0759L7.74411 40.3599C7.71394 40.3474 7.67373 40.3271 7.62347 40.2989C7.57768 40.273 7.49855 40.191 7.38605 40.0528C7.27803 39.917 7.1914 39.7498 7.12616 39.5515ZM8.81937 39.3468C8.86866 39.338 8.92693 39.3226 8.99417 39.3004C9.06142 39.2783 9.12318 39.2282 9.17947 39.1501C9.23911 39.0709 9.24682 38.964 9.20259 38.8295C9.15946 38.6984 9.08594 38.6108 8.98203 38.5667C8.87811 38.5226 8.72645 38.5203 8.52706 38.5598L8.81937 39.3468Z" fill="white"/>
<path d="M10.6377 41.1071C10.7688 41.2627 10.873 41.4162 10.9503 41.5675C11.0275 41.7188 11.088 41.8489 11.1316 41.9577L9.24488 42.921C9.26036 43.0681 9.25103 43.1821 9.21688 43.2631L8.82863 43.4017L8.27339 42.3141L8.61336 42.081C8.69579 42.0945 8.79364 42.1538 8.90691 42.259L10.2215 41.5878C10.203 41.4582 10.2123 41.3441 10.2495 41.2457L10.6377 41.1071ZM11.2368 41.4748C11.1032 41.2132 11.1547 41.022 11.3911 40.9013C11.6307 40.779 11.8173 40.8487 11.9508 41.1103C12.086 41.3751 12.0338 41.5687 11.7942 41.691C11.5578 41.8117 11.372 41.7397 11.2368 41.4748Z" fill="white"/>
<path d="M10.5326 46.182C10.2856 45.8451 10.1925 45.5294 10.2531 45.2349C10.3136 44.9403 10.5252 44.6602 10.8877 44.3944C11.2532 44.1266 11.5974 44.0125 11.9205 44.0522C12.2485 44.0926 12.5371 44.2826 12.7861 44.6223C13.0351 44.9621 13.1336 45.2761 13.0816 45.5643C13.0317 45.8555 12.824 46.1349 12.4586 46.4028C12.096 46.6685 11.7454 46.7829 11.4067 46.7459C11.0729 46.7097 10.7816 46.5217 10.5326 46.182ZM11.3783 44.9828C10.9215 45.3176 10.7936 45.622 10.9944 45.8961C11.097 46.036 11.2237 46.1011 11.3746 46.0914C11.5304 46.0825 11.7268 45.9912 11.9638 45.8175C12.4091 45.4911 12.5293 45.188 12.3242 44.9082C12.2238 44.7712 12.0995 44.7065 11.9515 44.7141C11.8063 44.7196 11.6152 44.8091 11.3783 44.9828Z" fill="white"/>
<path d="M16.2699 48.9786C16.3012 48.9357 16.336 48.8909 16.3743 48.8444C16.7445 48.8952 17.0827 49.0321 17.3888 49.2551C17.6949 49.4781 17.871 49.6962 17.9172 49.9094C17.9683 50.1217 17.8959 50.3624 17.6999 50.6313L17.034 51.5453C17.1196 51.6383 17.1805 51.7199 17.2169 51.7902L16.9449 52.1636C16.749 52.1259 16.5151 52.0081 16.2434 51.8101C16.2689 51.7149 16.3103 51.6071 16.3674 51.4866C16.1131 51.5772 15.8243 51.5048 15.501 51.2693C15.3093 51.1296 15.1855 50.954 15.1294 50.7424C15.0763 50.5328 15.1195 50.3322 15.2591 50.1406C15.3988 49.9489 15.5711 49.8446 15.7762 49.8276C15.9862 49.8098 16.2171 49.8926 16.4689 50.076L16.9366 50.4168L17.0867 50.2108C17.2492 49.9877 17.2118 49.7896 16.9744 49.6166C16.8857 49.552 16.8065 49.5074 16.7367 49.4829C16.6435 49.5989 16.5586 49.6794 16.482 49.7243L16.0615 49.4179C16.0858 49.2824 16.1553 49.1359 16.2699 48.9786ZM16.0044 50.966C16.1503 51.0723 16.2974 51.1138 16.4458 51.0905L16.7021 50.7386L16.4017 50.5198C16.1958 50.3697 16.0355 50.3733 15.9208 50.5307C15.8687 50.6022 15.8475 50.6765 15.857 50.7535C15.8694 50.8326 15.9186 50.9035 16.0044 50.966Z" fill="white"/>
<path d="M19.6836 50.9108C19.8791 50.9489 20.0484 50.9988 20.1914 51.0605C20.3344 51.1223 20.4516 51.1767 20.5431 51.2239L20.4379 51.4676C20.5439 51.4363 20.6652 51.4231 20.8019 51.4281C20.9385 51.4331 21.0539 51.4559 21.1482 51.4966C21.5187 51.6565 21.7257 51.8557 21.7692 52.0942C21.8841 52.0513 22.0194 52.0325 22.1751 52.038C22.3322 52.0403 22.4676 52.066 22.5813 52.1151C22.9388 52.2693 23.1443 52.4544 23.1976 52.6701C23.2524 52.8827 23.1844 53.2099 22.9937 53.6519L22.6529 54.4416C22.7586 54.545 22.8241 54.6389 22.8495 54.7231L22.6387 55.0774L21.5175 54.5935L21.6308 54.1971C21.7029 54.155 21.8161 54.1383 21.9704 54.1471L22.387 53.1819C22.4641 53.0032 22.4909 52.874 22.4674 52.7945C22.4439 52.715 22.359 52.6436 22.2128 52.5805C22.0698 52.5188 21.9102 52.5135 21.7339 52.5647C21.7025 52.6822 21.6447 52.8384 21.5605 53.0334L21.2197 53.8231C21.3254 53.9266 21.3909 54.0204 21.4163 54.1046L21.2056 54.4589L20.0844 53.975L20.1976 53.5786C20.2698 53.5365 20.383 53.5198 20.5373 53.5286L20.9538 52.5634C21.0309 52.3847 21.0577 52.2555 21.0342 52.176C21.0107 52.0965 20.9275 52.0258 20.7845 51.9641C20.6415 51.9024 20.4826 51.8955 20.3077 51.9434L19.767 53.1962C19.8728 53.2997 19.9383 53.3935 19.9636 53.4777L19.7529 53.832L18.6317 53.3481L18.745 52.9517C18.8171 52.9096 18.9303 52.8929 19.0846 52.9017L19.6694 51.5465C19.5725 51.4584 19.507 51.3646 19.4728 51.2651L19.6836 50.9108Z" fill="white"/>
<path d="M25.0579 51.8122C25.2612 51.8034 25.4463 51.8147 25.6133 51.846C25.7803 51.8773 25.9202 51.9089 26.0331 51.9408L25.7887 53.2455C25.8715 53.207 25.9774 53.18 26.1064 53.1645C26.2359 53.1456 26.3564 53.1465 26.4677 53.1674C26.8469 53.2384 27.0948 53.3857 27.2114 53.6092C27.328 53.8327 27.3423 54.1793 27.2543 54.649C27.2054 54.9099 27.1265 55.1292 27.0176 55.3068C26.9129 55.4817 26.7901 55.6081 26.6495 55.6862C26.3834 55.838 26.0937 55.8846 25.7806 55.8259C25.5441 55.7816 25.3221 55.6788 25.1146 55.5175C25.0316 55.5956 24.9465 55.6265 24.8596 55.6102L24.5986 55.5613L25.1842 52.4354C25.0703 52.3709 24.9857 52.2938 24.9304 52.2042L25.0579 51.8122ZM25.8386 55.2858C26.1726 55.3484 26.392 55.0996 26.497 54.5395C26.5524 54.2438 26.5603 54.0382 26.5207 53.9227C26.4852 53.8045 26.3962 53.732 26.2535 53.7053C26.0378 53.6648 25.8497 53.689 25.689 53.7777L25.4377 55.1189C25.5763 55.2061 25.7099 55.2617 25.8386 55.2858Z" fill="white"/>
<path d="M29.0522 53.5222C29.2515 53.4811 29.436 53.4627 29.6059 53.4669C29.7757 53.4711 29.9189 53.4799 30.0354 53.4934L29.9831 55.6112C30.1198 55.6676 30.2156 55.7302 30.2706 55.7988L30.2074 56.2062L28.9866 56.1761L28.9436 55.7661C28.9948 55.7001 29.0936 55.6423 29.24 55.5928L29.2765 54.1173C29.1537 54.0718 29.0578 54.0092 28.989 53.9296L29.0522 53.5222ZM29.661 53.1708C29.3673 53.1636 29.2237 53.0273 29.2303 52.7619C29.2369 52.4929 29.3871 52.3621 29.6808 52.3694C29.978 52.3767 30.1233 52.5148 30.1167 52.7838C30.1101 53.0491 29.9582 53.1782 29.661 53.1708Z" fill="white"/>
<path d="M33.508 56.0272C33.0868 56.0821 32.7545 56.0112 32.5112 55.8145C32.2713 55.6173 32.1234 55.3046 32.0676 54.8764C32.0338 54.6167 32.0416 54.389 32.091 54.1934C32.14 53.9943 32.2211 53.8356 32.3341 53.7173C32.5542 53.4887 32.8274 53.3532 33.1539 53.3106C33.4803 53.2681 33.7404 53.3198 33.9344 53.4659C34.1314 53.6079 34.258 53.8948 34.3143 54.3265C34.3472 54.5792 34.2391 54.7218 33.9899 54.7543L32.8475 54.9033C32.8903 55.1225 32.9669 55.2714 33.077 55.3499C33.1907 55.4278 33.3563 55.4527 33.574 55.4243C33.6933 55.4087 33.8055 55.3798 33.9107 55.3376C34.0158 55.2953 34.0911 55.2569 34.1366 55.2224L34.2048 55.1707L34.4177 55.5713C34.3998 55.5986 34.3723 55.6343 34.3353 55.6784C34.3012 55.7186 34.2058 55.781 34.0491 55.8656C33.8954 55.9464 33.7151 56.0002 33.508 56.0272ZM33.6235 54.3256C33.6241 54.2755 33.6198 54.2154 33.6107 54.1452C33.6015 54.075 33.5638 54.005 33.4976 53.9351C33.4309 53.8617 33.3274 53.8341 33.187 53.8524C33.0501 53.8703 32.9503 53.9261 32.8876 54.0199C32.8249 54.1138 32.7943 54.2623 32.7958 54.4656L33.6235 54.3256Z" fill="white"/>
<path d="M35.6274 52.9226C35.7994 52.822 35.9594 52.7475 36.1075 52.6993C36.2556 52.6511 36.3795 52.6144 36.4793 52.5894L36.5615 52.8418C36.6226 52.7437 36.7151 52.6503 36.8388 52.5617C36.9648 52.4685 37.0918 52.4011 37.2197 52.3595C37.5495 52.2521 37.8052 52.2544 37.9869 52.3665C38.1719 52.4774 38.3264 52.7231 38.4502 53.1034L38.7659 54.0727C38.9136 54.0804 39.0248 54.1075 39.0994 54.1539L39.1755 54.5591L38.0144 54.9372L37.8373 54.5649C37.8636 54.4856 37.9376 54.3982 38.0591 54.3028L37.7336 53.3033C37.6744 53.1215 37.6047 53.0102 37.5244 52.9694C37.4463 52.924 37.3316 52.926 37.1801 52.9754C37.0287 53.0247 36.8948 53.1279 36.7784 53.2849L37.2009 54.5823C37.3486 54.59 37.4598 54.6171 37.5344 54.6635L37.6105 55.0687L36.4494 55.4468L36.2724 55.0745C36.2987 54.9952 36.3726 54.9079 36.4941 54.8125L36.0371 53.409C35.9062 53.407 35.795 53.3799 35.7035 53.3278L35.6274 52.9226Z" fill="white"/>
<path d="M40.186 50.3921L40.4995 50.9831L41.1702 50.6274L41.3792 51.0214L40.7084 51.3771L41.3378 52.5638C41.3909 52.6638 41.4439 52.7299 41.4969 52.7618C41.5483 52.7907 41.6271 52.7769 41.7335 52.7205C41.8398 52.6642 41.9415 52.5802 42.0385 52.4686L42.3733 52.7598C42.1972 53.0095 41.9825 53.2015 41.7292 53.3358C41.4791 53.4685 41.2805 53.5057 41.1334 53.4475C40.9878 53.3845 40.8603 53.2498 40.7508 53.0434L40.0518 51.7254L39.8407 51.8373L39.6374 51.5786C39.6559 51.4926 39.7276 51.3785 39.8524 51.2362C39.7539 50.9599 39.751 50.739 39.8436 50.5737L40.186 50.3921Z" fill="white"/>
<path d="M45.064 51.2449C44.7254 51.5013 44.4017 51.6044 44.0928 51.5542C43.7868 51.5018 43.5034 51.3035 43.2427 50.9592C43.0846 50.7504 42.9785 50.5488 42.9245 50.3544C42.8684 50.1571 42.8601 49.9791 42.8997 49.8204C42.9776 49.5128 43.1477 49.2596 43.4101 49.0609C43.6725 48.8622 43.9242 48.7782 44.165 48.8089C44.4065 48.8347 44.6587 49.0211 44.9215 49.3682C45.0754 49.5714 45.0521 49.7488 44.8518 49.9005L43.9333 50.5961C44.0792 50.7653 44.2195 50.8567 44.354 50.8702C44.4914 50.8816 44.6476 50.821 44.8225 50.6886C44.9185 50.6159 45.0016 50.5352 45.072 50.4464C45.1424 50.3575 45.1888 50.2869 45.2112 50.2344L45.2448 50.1557L45.6282 50.3981C45.6262 50.4307 45.6201 50.4753 45.6097 50.532C45.6 50.5837 45.5481 50.6852 45.454 50.8364C45.3605 50.9827 45.2305 51.1188 45.064 51.2449ZM44.321 49.7097C44.2968 49.6659 44.2633 49.6158 44.2205 49.5594C44.1778 49.503 44.1103 49.4608 44.0182 49.4329C43.9239 49.4022 43.8203 49.4296 43.7074 49.5151C43.5974 49.5984 43.5384 49.6964 43.5304 49.809C43.5224 49.9216 43.5695 50.0658 43.6715 50.2415L44.321 49.7097Z" fill="white"/>
<path d="M47.0612 43.8606C47.5056 43.2384 47.9798 43.1074 48.4838 43.4674C48.5933 43.5455 48.6904 43.6562 48.7752 43.7994C48.8571 43.9405 48.9159 44.0804 48.9517 44.2191L49.2561 45.3824C49.2976 45.5557 49.3254 45.7451 49.3394 45.9509L49.3505 46.0632L49.4135 46.0755C49.4822 45.9245 49.57 45.7741 49.677 45.6243L49.9208 45.283C49.7767 45.1497 49.6786 45.0253 49.6263 44.9096L49.9454 44.5177C50.1001 44.5325 50.297 44.6253 50.5361 44.796C50.6369 44.868 50.7204 44.9429 50.7867 45.0207L49.3704 47.0038L48.7606 46.7249L48.3623 44.8159C48.2874 44.458 48.1492 44.207 47.9475 44.063C47.8438 43.9889 47.749 43.9603 47.663 43.9772C47.577 43.9941 47.4867 44.0688 47.3921 44.2013C47.2974 44.3338 47.2349 44.4609 47.2045 44.5827C47.3991 44.7609 47.5151 44.8937 47.5526 44.9814L47.2564 45.3505C47.1222 45.3373 46.9408 45.2534 46.712 45.0987C46.663 45.0637 46.6295 45.0376 46.6114 45.0203C46.6295 44.6418 46.7794 44.2552 47.0612 43.8606Z" fill="white"/>
<path d="M52.3976 42.1165C52.2033 42.5414 51.9393 42.7826 51.6055 42.8402C51.2732 42.8945 50.8029 42.7826 50.1945 42.5045C49.5861 42.2263 49.1892 41.9281 49.0039 41.6099C48.82 41.2884 48.826 40.9136 49.0217 40.4855C49.2189 40.0541 49.4773 39.8084 49.7967 39.7481C50.1176 39.6847 50.5822 39.792 51.1906 40.0702C51.799 40.3483 52.2009 40.6527 52.3961 40.9833C52.5928 41.3106 52.5933 41.6884 52.3976 42.1165ZM49.5417 41.2253C49.689 41.3627 49.9961 41.5381 50.4628 41.7515C50.9296 41.9649 51.2759 42.0843 51.5017 42.1097C51.7275 42.1351 51.8823 42.056 51.9662 41.8726C52.0368 41.718 52.0263 41.5751 51.9346 41.4436C51.8295 41.2905 51.5194 41.0962 51.0044 40.8607C50.4893 40.6252 50.1237 40.497 49.9076 40.476C49.6914 40.455 49.5392 40.5411 49.4509 40.7343C49.3641 40.9242 49.3943 41.0879 49.5417 41.2253Z" fill="white"/>
<path d="M50.3314 36.7214C50.5112 35.9783 50.9022 35.6796 51.5042 35.8254C51.6349 35.857 51.7663 35.9234 51.8984 36.0246C52.0271 36.1249 52.1339 36.2327 52.2189 36.3479L52.9357 37.3135C53.039 37.4587 53.1355 37.6241 53.2253 37.8097L53.2776 37.9097L53.3406 37.8977C53.3479 37.7319 53.3733 37.5596 53.4166 37.3807L53.5152 36.9731C53.3318 36.9032 53.1943 36.8244 53.1027 36.7366L53.2523 36.2539C53.4013 36.2099 53.6186 36.2224 53.9042 36.2915C54.0246 36.3206 54.13 36.3589 54.2205 36.4063L53.6472 38.7749L52.9774 38.7439L51.8951 37.1217C51.6919 36.8176 51.4699 36.6364 51.2291 36.5782C51.1053 36.5482 51.0066 36.5571 50.9332 36.6049C50.8597 36.6526 50.8038 36.7556 50.7655 36.9139C50.7272 37.0721 50.7167 37.2134 50.7339 37.3378C50.981 37.4304 51.1383 37.5103 51.2057 37.5776L51.0688 38.0306C50.9394 38.0685 50.7398 38.0584 50.4698 38.0004C50.4113 37.9862 50.3704 37.9745 50.3472 37.9652C50.2226 37.6073 50.2173 37.1927 50.3314 36.7214Z" fill="white"/>
<path d="M51.1063 34.2054C51.0604 34.203 51.0216 34.1992 50.9899 34.194C50.9521 34.1034 50.921 33.9529 50.8966 33.7425C50.8722 33.5321 50.8639 33.3509 50.8719 33.1989C50.88 33.0434 50.9016 32.9027 50.9365 32.777C50.9714 32.6512 51.0256 32.53 51.0991 32.4133C51.169 32.2965 51.2711 32.2079 51.4054 32.1476C51.5363 32.0835 51.6831 32.0558 51.8457 32.0643C52.0048 32.0726 52.1525 32.1282 52.2889 32.231C52.4217 32.3337 52.5201 32.4522 52.5839 32.5867L52.6317 32.5892C52.8019 32.1799 53.0886 31.9858 53.4915 32.0068C53.8909 32.0277 54.1822 32.1848 54.3654 32.4779C54.5485 32.771 54.6283 33.142 54.6048 33.5909C54.5974 33.7323 54.5697 33.8904 54.5215 34.0651C54.4701 34.2361 54.4171 34.368 54.3626 34.4608L53.913 34.315C54.0138 34.0828 54.0697 33.8607 54.0808 33.6486C54.108 33.129 53.9342 32.8594 53.5596 32.8398C53.1354 32.8176 52.9125 33.0133 52.8909 33.4268C52.8822 33.593 52.881 33.7506 52.8874 33.8998L52.4395 33.9242L52.4218 33.4501C52.4038 33.0487 52.2216 32.8389 51.8752 32.8208C51.695 32.8113 51.562 32.8469 51.4762 32.9275C51.3905 33.0081 51.3432 33.1332 51.3343 33.3028C51.331 33.3665 51.3329 33.4304 51.3402 33.4946C51.5333 33.5295 51.6795 33.5814 51.7786 33.6504L51.7274 34.1209C51.5997 34.1922 51.3926 34.2203 51.1063 34.2054Z" fill="white"/>
<path d="M44.298 30.5749C39.3338 35.9662 32.8423 38.7501 30.424 35.1177C28.0057 31.4853 33.226 24.5986 39.6787 23.6365C49.1678 22.2216 52.1067 20.6822 52.1067 20.6822C52.1067 20.6822 47.9147 23.4731 44.298 30.5749Z" fill="white"/>
<path d="M18.4114 22.4508C22.1119 27.6767 27.4268 30.8135 29.9278 27.9355C32.4288 25.0575 28.6732 18.507 23.1887 16.9533C15.1233 14.6684 12.7482 13.0064 12.7482 13.0064C12.7482 13.0064 16.0696 15.8927 18.4114 22.4508Z" fill="white"/>
<line x1="30.5999" y1="18.9696" x2="30.1199" y2="48.7296" stroke="white" stroke-width="1.2"/>
</svg>
