<svg width="47" height="79" viewBox="0 0 47 79" fill="none" xmlns="http://www.w3.org/2000/svg">
<path d="M43.3074 23C43.3074 33.4373 34.552 41.961 23.6732 41.961C12.7944 41.961 4.03907 33.4373 4.03907 23C4.03907 12.5628 12.7944 4.03907 23.6732 4.03907C34.552 4.03907 43.3074 12.5628 43.3074 23Z" stroke="#397638" stroke-width="2.2439"/>
<circle cx="23.6731" cy="22.9999" r="21.7659" stroke="#397638" stroke-width="1.12195" stroke-linejoin="bevel" stroke-dasharray="11.22 11.22"/>
<path d="M15.1523 41.0634L24.5876 43.0822L18.8597 69.8519L15.483 64.6243L9.42444 67.833L15.1523 41.0634Z" fill="#397638"/>
<path d="M23.4598 41.2878L31.5196 41.4617L30.7231 78.3773L27.1795 72.3576L22.6634 78.2034L23.4598 41.2878Z" fill="#397638"/>
<path d="M19.8061 18.175C13.1321 25.7828 8.31579 32.3022 4.64761 26.7924C0.979435 21.2827 7.91676 11.4899 16.9945 10.5031C30.3442 9.05177 34.4055 6.9808 34.4055 6.9808C34.4055 6.9808 26.4802 10.5672 19.8061 18.175Z" fill="#397638"/>
<path d="M22.1892 38.1121C22.1998 38.0341 22.2232 37.9142 22.2592 37.7524L22.2746 37.683L22.2458 37.6761C22.1783 37.8356 22.1214 37.9619 22.0749 38.0548L21.5298 39.1447L21.141 39.0915L20.888 37.8925C20.863 37.7998 20.8447 37.6861 20.8334 37.5515L20.825 37.4819L20.7954 37.4808C20.7892 37.6567 20.7783 37.8021 20.7625 37.9171L20.6574 38.6859C20.7258 38.7231 20.7745 38.7665 20.8034 38.8161L20.7434 39.0372L20.1704 38.9589L20.172 38.7298C20.2132 38.6897 20.2717 38.661 20.3476 38.6436L20.5322 37.2929C20.4563 37.2528 20.4057 37.2091 20.3803 37.162L20.4403 36.9409L21.1069 37.032L21.3727 38.2685C21.4096 38.4046 21.4286 38.5273 21.4295 38.6366L21.4315 38.6875L21.4724 38.6931C21.4965 38.5753 21.55 38.4456 21.6328 38.3041L22.2003 37.1815L22.8551 37.271L22.8536 37.5001C22.8165 37.5387 22.7561 37.5672 22.6721 37.5855L22.4891 38.9244C22.5611 38.964 22.6101 39.0055 22.6359 39.0487L22.5735 39.2874L21.907 39.1963L21.9105 38.9525C21.947 38.9178 22.0053 38.891 22.0853 38.8722L22.1892 38.1121Z" fill="black"/>
<path d="M24.5061 39.2891C24.2703 39.2999 24.0896 39.2451 23.964 39.1248C23.8404 39.0044 23.7731 38.8244 23.7621 38.5846C23.7555 38.4392 23.7704 38.3135 23.8069 38.2075C23.8433 38.0995 23.8956 38.0154 23.9638 37.9552C24.0963 37.8388 24.2539 37.7765 24.4367 37.7681C24.6194 37.7598 24.7611 37.8006 24.8617 37.8905C24.9642 37.9784 25.0209 38.1432 25.0319 38.3849C25.0384 38.5263 24.9719 38.6003 24.8324 38.6066L24.1927 38.6359C24.2063 38.7593 24.2417 38.8453 24.2991 38.8939C24.3584 38.9424 24.449 38.9638 24.5708 38.9583C24.6376 38.9552 24.7011 38.9444 24.7613 38.9259C24.8215 38.9074 24.865 38.8897 24.8918 38.8727L24.932 38.8472L25.0312 39.079C25.02 39.0933 25.0031 39.1118 24.9805 39.1345C24.9598 39.1551 24.9041 39.1852 24.8134 39.2248C24.7245 39.2624 24.6221 39.2838 24.5061 39.2891ZM24.6494 38.3521C24.6521 38.3244 24.6525 38.2909 24.6507 38.2516C24.6489 38.2123 24.6313 38.1718 24.5979 38.13C24.5644 38.0862 24.5084 38.0661 24.4298 38.0697C24.3531 38.0732 24.2953 38.0995 24.2561 38.1486C24.217 38.1976 24.1932 38.2784 24.1845 38.3911L24.6494 38.3521Z" fill="black"/>
<path d="M25.9269 37.6502C26.0311 37.6062 26.1297 37.5761 26.2227 37.56C26.3157 37.5439 26.3947 37.5332 26.4597 37.5279L26.6608 38.6879C26.7415 38.7038 26.8005 38.7275 26.8379 38.759L26.8476 38.9879L26.179 39.1038L26.1111 38.885C26.1318 38.8435 26.1794 38.8013 26.2538 38.7585L26.1137 37.9502C26.0418 37.9387 25.9828 37.915 25.9366 37.8791L25.9269 37.6502ZM26.2206 37.3927C26.0598 37.4205 25.9667 37.3618 25.9415 37.2165C25.916 37.0692 25.9836 36.9816 26.1445 36.9537C26.3073 36.9254 26.4015 36.985 26.427 37.1323C26.4522 37.2776 26.3834 37.3644 26.2206 37.3927Z" fill="black"/>
<path d="M28.6319 38.5647C28.4103 38.6339 28.2276 38.6261 28.0836 38.5413C27.9396 38.4564 27.8304 38.2947 27.7559 38.0563C27.6808 37.816 27.6828 37.6144 27.7617 37.4517C27.842 37.2864 27.9939 37.1689 28.2173 37.0991C28.4408 37.0293 28.6236 37.034 28.7658 37.1133C28.9099 37.1919 29.0195 37.3514 29.0946 37.5917C29.1691 37.8302 29.1661 38.0351 29.0857 38.2066C29.0066 38.3755 28.8553 38.4949 28.6319 38.5647ZM28.1535 37.9042C28.2474 38.2047 28.3844 38.3267 28.5647 38.2704C28.6567 38.2417 28.7137 38.1867 28.7358 38.1057C28.7591 38.0221 28.7465 37.9024 28.6978 37.7466C28.6063 37.4537 28.4685 37.336 28.2845 37.3934C28.1944 37.4216 28.138 37.4753 28.1154 37.5545C28.0921 37.6318 28.1048 37.7484 28.1535 37.9042Z" fill="black"/>
<path d="M31.2657 36.0665C31.2502 36.0414 31.2345 36.0141 31.2185 35.9847C31.3222 35.8047 31.4635 35.6593 31.6424 35.5484C31.8213 35.4375 31.9704 35.3925 32.0898 35.4133C32.2098 35.4315 32.3186 35.5192 32.416 35.6763L32.7471 36.2105C32.8129 36.186 32.8677 36.1717 32.9115 36.1677L33.0467 36.3858C32.9863 36.4788 32.8767 36.5745 32.7179 36.673C32.6742 36.6399 32.6274 36.596 32.5773 36.5414C32.5707 36.6913 32.4729 36.8248 32.284 36.9419C32.172 37.0114 32.0556 37.0384 31.935 37.0229C31.816 37.0064 31.7218 36.9422 31.6523 36.8301C31.5829 36.7181 31.5652 36.6075 31.5994 36.4984C31.6343 36.3866 31.7252 36.285 31.8724 36.1938L32.1457 36.0244L32.0711 35.904C31.9903 35.7736 31.8805 35.7514 31.7417 35.8374C31.6899 35.8695 31.6503 35.901 31.6231 35.9318C31.6633 36.004 31.6869 36.0646 31.6941 36.1134L31.4483 36.2658C31.3836 36.2249 31.3227 36.1584 31.2657 36.0665ZM32.2333 36.6193C32.3185 36.5664 32.3707 36.4994 32.3898 36.4181L32.2623 36.2125L32.0868 36.3213C31.9664 36.3959 31.9347 36.4792 31.9917 36.5712C32.0176 36.613 32.0514 36.6395 32.093 36.6507C32.1364 36.6608 32.1831 36.6504 32.2333 36.6193Z" fill="black"/>
<path d="M33.0479 34.6661C33.1122 34.5759 33.1764 34.5018 33.2406 34.4436C33.3047 34.3855 33.3592 34.3387 33.4041 34.3033L33.5032 34.4126C33.5117 34.3518 33.533 34.2874 33.567 34.2194C33.6009 34.1514 33.6391 34.0983 33.6813 34.06C33.8475 33.9094 33.9959 33.8505 34.1266 33.8834C34.1313 33.8154 34.153 33.7426 34.1916 33.6651C34.2289 33.5862 34.273 33.5236 34.324 33.4774C34.4843 33.332 34.6252 33.2707 34.7467 33.2934C34.8668 33.3146 35.0167 33.4243 35.1964 33.6225L35.5174 33.9766C35.5941 33.947 35.6566 33.9354 35.705 33.942L35.8357 34.1301L35.3329 34.5859L35.1585 34.4374C35.1538 34.3912 35.1714 34.3301 35.2113 34.2541L34.819 33.8212C34.7463 33.7411 34.6871 33.6978 34.6415 33.6914C34.5959 33.685 34.5402 33.7115 34.4747 33.7709C34.4105 33.8291 34.3711 33.9086 34.3564 34.0095C34.4086 34.0525 34.4744 34.1177 34.5536 34.2051L34.8747 34.5593C34.9513 34.5296 35.0139 34.518 35.0623 34.5246L35.193 34.7127L34.6902 35.1685L34.5158 35.02C34.5111 34.9738 34.5287 34.9127 34.5686 34.8367L34.1763 34.4039C34.1036 34.3237 34.0444 34.2804 33.9988 34.274C33.9532 34.2676 33.8983 34.2934 33.8341 34.3516C33.77 34.4097 33.7299 34.4885 33.7139 34.588L34.2232 35.1498C34.2999 35.1202 34.3624 35.1086 34.4109 35.1152L34.5416 35.3033L34.0388 35.7591L33.8643 35.6106C33.8596 35.5644 33.8772 35.5033 33.9172 35.4273L33.3663 34.8195C33.2994 34.8483 33.2369 34.8598 33.1786 34.8542L33.0479 34.6661Z" fill="black"/>
<path d="M34.8316 32.0842C34.8782 31.9812 34.9302 31.8922 34.9876 31.8172C35.0449 31.7422 35.0957 31.6807 35.1398 31.6327L35.7258 32.0808C35.7274 32.0301 35.7406 31.9708 35.7652 31.9029C35.7883 31.8339 35.8189 31.7744 35.8572 31.7244C35.9874 31.5541 36.1226 31.468 36.2627 31.4662C36.4027 31.4643 36.5782 31.5441 36.7892 31.7054C36.9064 31.795 36.9954 31.8891 37.0562 31.9876C37.1167 32.0834 37.1487 32.176 37.1522 32.2653C37.1608 32.4354 37.1114 32.5907 37.0038 32.7313C36.9226 32.8376 36.8159 32.9219 36.684 32.9844C36.7019 33.0452 36.6959 33.0951 36.666 33.1342L36.5764 33.2514L35.1725 32.1777C35.1119 32.2181 35.0525 32.2407 34.9942 32.2457L34.8316 32.0842ZM36.7504 32.5672C36.8651 32.4172 36.7967 32.246 36.5451 32.0537C36.4123 31.9521 36.3123 31.8967 36.2451 31.8874C36.1776 31.8753 36.1193 31.9013 36.0703 31.9654C35.9962 32.0623 35.9611 32.1617 35.9648 32.2636L36.5672 32.7243C36.6451 32.6774 36.7062 32.6251 36.7504 32.5672Z" fill="black"/>
<path d="M36.7311 30.4868C36.7638 30.3786 36.8037 30.2835 36.8508 30.2017C36.8978 30.1198 36.9401 30.0522 36.9776 29.9989L37.9982 30.5857C38.062 30.5339 38.118 30.5037 38.1661 30.495L38.3483 30.6338L38.0101 31.2222L37.7984 31.1345C37.7797 31.092 37.7777 31.0284 37.7923 30.9438L37.0812 30.535C37.0264 30.5829 36.9705 30.6131 36.9133 30.6257L36.7311 30.4868ZM36.7208 30.0963C36.6394 30.2378 36.5347 30.2719 36.4068 30.1983C36.2772 30.1238 36.2531 30.0158 36.3345 29.8742C36.4169 29.731 36.5228 29.6966 36.6524 29.7711C36.7803 29.8447 36.8031 29.9531 36.7208 30.0963Z" fill="black"/>
<path d="M39.1726 28.9688C39.0816 29.1866 38.9549 29.3266 38.7924 29.3888C38.6308 29.4492 38.4392 29.4331 38.2178 29.3406C38.0835 29.2845 37.9762 29.2173 37.8959 29.139C37.8138 29.0599 37.7601 28.9767 37.7348 28.8894C37.6862 28.7199 37.6972 28.5507 37.7677 28.3819C37.8382 28.2131 37.9356 28.1024 38.0599 28.0499C38.1831 27.9948 38.3564 28.0138 38.5796 28.1071C38.7103 28.1617 38.7487 28.2534 38.6949 28.3823L38.4481 28.9731C38.5654 29.0136 38.6583 29.0183 38.7268 28.9872C38.7959 28.9543 38.854 28.8816 38.9011 28.769C38.9268 28.7073 38.9442 28.6453 38.9532 28.583C38.9622 28.5206 38.9647 28.4737 38.9608 28.4423L38.955 28.395L39.2069 28.4044C39.2151 28.4206 39.2246 28.4437 39.2354 28.4738C39.2452 28.5014 39.2487 28.5646 39.2457 28.6636C39.2417 28.76 39.2173 28.8617 39.1726 28.9688ZM38.3866 28.439C38.3627 28.4247 38.3326 28.41 38.2963 28.3949C38.26 28.3797 38.2158 28.3783 38.1638 28.3907C38.1099 28.4023 38.0678 28.4444 38.0374 28.517C38.0079 28.5878 38.0069 28.6513 38.0345 28.7076C38.0622 28.7639 38.1251 28.8201 38.2232 28.876L38.3866 28.439Z" fill="black"/>
<path d="M38.3043 27.0181C38.3075 26.9074 38.3197 26.81 38.3406 26.7261C38.3616 26.6421 38.3808 26.5729 38.3985 26.5185L38.5416 26.5542C38.5134 26.4965 38.4967 26.4254 38.4914 26.341C38.4847 26.2541 38.4904 26.1745 38.5085 26.1019C38.5551 25.9149 38.6316 25.7951 38.738 25.7426C38.8448 25.6881 39.0061 25.6878 39.2218 25.7416L39.7714 25.8787C39.8186 25.8114 39.8642 25.767 39.9081 25.7456L40.1214 25.8292L39.9571 26.4876L39.7295 26.4613C39.6999 26.4255 39.6806 26.3649 39.6715 26.2795L39.1046 26.1381C39.0015 26.1124 38.9285 26.1125 38.8856 26.1382C38.8413 26.1616 38.8084 26.2163 38.7869 26.3022C38.7655 26.3881 38.7746 26.4816 38.8143 26.5827L39.55 26.7662C39.5972 26.6989 39.6428 26.6545 39.6867 26.6331L39.9 26.7167L39.7357 27.3751L39.5081 27.3488C39.4785 27.313 39.4592 27.2524 39.4501 27.167L38.6542 26.9685C38.6146 27.0296 38.5691 27.074 38.5176 27.1017L38.3043 27.0181Z" fill="black"/>
<path d="M38.5034 24.0486L38.8732 24.0869L38.9167 23.6672L39.1632 23.6928L39.1197 24.1125L39.8622 24.1894C39.9248 24.1959 39.9717 24.1919 40.0029 24.1773C40.0321 24.1626 40.0502 24.1219 40.0571 24.0554C40.064 23.9889 40.0567 23.9159 40.0353 23.8366L40.2733 23.7723C40.334 23.9308 40.3561 24.0894 40.3397 24.2478C40.3235 24.4044 40.2792 24.5076 40.2068 24.5574C40.1326 24.6051 40.031 24.6222 39.9018 24.6088L39.0771 24.5234L39.0634 24.6554L38.881 24.6692C38.8471 24.634 38.8166 24.5656 38.7896 24.4639C38.6316 24.4238 38.5288 24.3568 38.4812 24.2628L38.5034 24.0486Z" fill="black"/>
<path d="M40.4415 22.0408C40.4481 22.2768 40.3901 22.4565 40.2676 22.5799C40.1451 22.7014 39.9638 22.7655 39.7239 22.7722C39.5784 22.7762 39.453 22.759 39.3476 22.7206C39.2403 22.6823 39.1571 22.6285 39.0981 22.5593C38.9842 22.4247 38.9247 22.266 38.9196 22.0831C38.9145 21.9003 38.9578 21.7593 39.0495 21.6604C39.1392 21.5595 39.305 21.5057 39.5468 21.499C39.6884 21.495 39.7611 21.5629 39.765 21.7025L39.7828 22.3425C39.9065 22.3312 39.9931 22.2973 40.0427 22.2408C40.0922 22.1824 40.1153 22.0922 40.1119 21.9703C40.1101 21.9034 40.1004 21.8397 40.083 21.7792C40.0656 21.7187 40.0486 21.6749 40.0321 21.6478L40.0074 21.6072L40.2409 21.5121C40.255 21.5235 40.2732 21.5407 40.2954 21.5637C40.3157 21.5848 40.3448 21.6411 40.3828 21.7325C40.4187 21.822 40.4383 21.9248 40.4415 22.0408ZM39.5073 21.8808C39.4796 21.8777 39.4462 21.8766 39.4068 21.8777C39.3675 21.8788 39.3267 21.8957 39.2843 21.9284C39.2399 21.9611 39.2188 22.0168 39.221 22.0954C39.2232 22.1721 39.2484 22.2304 39.2967 22.2704C39.3451 22.3104 39.4255 22.3357 39.5379 22.3464L39.5073 21.8808Z" fill="black"/>
</svg>
